
PLOT

An old soldier kidnaps a young general of an enemy state and takes him on a long journey to collect the reward.
 
http://www.imdb.com/title/tt1319718/

Encoded By .......: BigPerm1828
Runtime ..........: 1h 35mn
File Size ........: 1.30 GiB
Resolution .......: 704x396
IMDb URL .........: http://www.imdb.com/title/tt1319718/
Language .........: Mandarin
Subtitles ........: English
Video
ID : 0
Format : MPEG-4 Visual
Format profile : Advanced Simple@L5
Format settings, BVOP : Yes
Format settings, QPel : No
Format settings, GMC : No warppoints
Format settings, Matrix : Default (H.263)
Codec ID : XVID
Codec ID/Hint : XviD
Duration : 1h 35mn
Bit rate : 71.5 Kbps
Width : 704 pixels
Height : 396 pixels
Display aspect ratio : 16:9
Frame rate : 29.970 fps
Color space : YUV
Chroma subsampling : 4:2:0
Bit depth : 8 bits
Scan type : Progressive
Compression mode : Lossy
Bits/(Pixel*Frame) : 0.009
Stream size : 48.8 MiB (4%)
Writing library : XviD 1.2.1 (UTC 2008-12-04)

Audio
ID : 1
Format : AC-3
Format/Info : Audio Coding 3
Codec ID : 2000
Duration : 1h 35mn
Bit rate mode : Constant
Bit rate : 448 Kbps
Channel(s) : 6 channels
Sampling rate : 48.0 KHz
Bit depth : 16 bits
Compression mode : Lossy
Stream size : 306 MiB (23%)
Alignment : Aligned on interleaves
 
http://leetleech.org/images/17815141548391768111.png
 
http://leetleech.org/images/99117434321222509971.png
 
http://leetleech.org/images/82183945657644512165.png
 
http://leetleech.org/images/42888804238046582343.png
 
http://leetleech.org/images/01849716033586821765.png